{"scene":0,"asset":{"generator":"ImageToStl.com","version":"2.0"},"scenes":[{"name":"Scene","nodes":[0]}],"nodes":[{"name":"Node0","children":[1,2]},{"name":"Node1","mesh":0},{"name":"Node2","mesh":1}],"materials":[{"name":"x1","pbrMetallicRoughness":{"baseColorFactor":[0.85,0.85,0.85,1.0],"metallicFactor":0.05,"roughnessFactor":0.5},"doubleSided":true}],"meshes":[{"name":"Mesh0","primitives":[{"indices":3,"material":0,"attributes":{"POSITION":0,"NORMAL":1,"TEXCOORD_0":2}}]},{"name":"Mesh0","primitives":[{"indices":7,"material":0,"attributes":{"POSITION":4,"NORMAL":5,"TEXCOORD_0":6}}]}],"accessors":[{"bufferView":0,"componentType":5126,"count":36375,"type":"VEC3","min":[-1.0,-0.013181,-2.011668],"max":[1.0,0.119115,0.962685]},{"bufferView":1,"componentType":5126,"count":36375,"type":"VEC3"},{"bufferView":2,"componentType":5126,"count":36375,"type":"VEC2"},{"bufferView":3,"componentType":5123,"count":369387,"type":"SCALAR"},{"bufferView":4,"componentType":5126,"count":40,"type":"VEC3","min":[0.00721,-0.253914,-0.617115],"max":[3.531023,-0.01479,-0.377991]},{"bufferView":5,"componentType":5126,"count":40,"type":"VEC3"},{"bufferView":6,"componentType":5126,"count":40,"type":"VEC2"},{"bufferView":7,"componentType":5123,"count":252,"type":"SCALAR"}],"bufferViews":[{"target":34962,"buffer":0,"byteLength":436500,"byteOffset":0},{"target":34962,"buffer":0,"byteLength":436500,"byteOffset":436500},{"target":34962,"buffer":0,"byteLength":291000,"byteOffset":873000},{"target":34963,"buffer":0,"byteLength":738774,"byteOffset":1164000},{"target":34962,"buffer":0,"byteLength":480,"byteOffset":1902776},{"target":34962,"buffer":0,"byteLength":480,"byteOffset":1903256},{"target":34962,"buffer":0,"byteLength":320,"byteOffset":1903736},{"target":34963,"buffer":0,"byteLength":504,"byteOffset":1904056}],"buffers":[{"byteLength":1904560,"uri":"data:application/octet-stream;base64,"}]}