{
  "asset": {
    "version": "2.0",
    "generator": "3dpea GLTFExporter"
  },
  "scenes": [
    {
      "name": "AuxScene",
      "nodes": [
        7
      ]
    }
  ],
  "scene": 0,
  "nodes": [
    {
      "name": "house_type07_1",
      "mesh": 0
    },
    {
      "name": "house_type07_2",
      "mesh": 1
    },
    {
      "name": "house_type07_3",
      "mesh": 2
    },
    {
      "name": "house_type07_4",
      "mesh": 3
    },
    {
      "name": "house_type07_5",
      "mesh": 4
    },
    {
      "matrix": [
        10,
        0,
        0,
        0,
        0,
        10,
        0,
        0,
        0,
        0,
        10,
        0,
        0,
        0,
        0,
        1
      ],
      "name": "house_type07",
      "extras": {
        "name": "house_type07"
      },
      "children": [
        0,
        1,
        2,
        3,
        4
      ]
    },
    {
      "name": "RootNode",
      "extras": {
        "name": "RootNode"
      },
      "children": [
        5
      ]
    },
    {
      "name": "PoorHouse",
      "extras": {
        "additionalData": []
      },
      "children": [
        6
      ]
    }
  ],
  "bufferViews": [
    {
      "buffer": 0,
      "byteOffset": 0,
      "byteLength": 2856,
      "target": 34962,
      "byteStride": 12
    },
    {
      "buffer": 0,
      "byteOffset": 2856,
      "byteLength": 2856,
      "target": 34962,
      "byteStride": 12
    },
    {
      "buffer": 0,
      "byteOffset": 5712,
      "byteLength": 1904,
      "target": 34962,
      "byteStride": 8
    },
    {
      "buffer": 0,
      "byteOffset": 7616,
      "byteLength": 1008,
      "target": 34963
    },
    {
      "buffer": 0,
      "byteOffset": 8624,
      "byteLength": 276,
      "target": 34962,
      "byteStride": 12
    },
    {
      "buffer": 0,
      "byteOffset": 8900,
      "byteLength": 276,
      "target": 34962,
      "byteStride": 12
    },
    {
      "buffer": 0,
      "byteOffset": 9176,
      "byteLength": 184,
      "target": 34962,
      "byteStride": 8
    },
    {
      "buffer": 0,
      "byteOffset": 9360,
      "byteLength": 68,
      "target": 34963
    },
    {
      "buffer": 0,
      "byteOffset": 9428,
      "byteLength": 996,
      "target": 34962,
      "byteStride": 12
    },
    {
      "buffer": 0,
      "byteOffset": 10424,
      "byteLength": 996,
      "target": 34962,
      "byteStride": 12
    },
    {
      "buffer": 0,
      "byteOffset": 11420,
      "byteLength": 664,
      "target": 34962,
      "byteStride": 8
    },
    {
      "buffer": 0,
      "byteOffset": 12084,
      "byteLength": 332,
      "target": 34963
    },
    {
      "buffer": 0,
      "byteOffset": 12416,
      "byteLength": 144,
      "target": 34962,
      "byteStride": 12
    },
    {
      "buffer": 0,
      "byteOffset": 12560,
      "byteLength": 144,
      "target": 34962,
      "byteStride": 12
    },
    {
      "buffer": 0,
      "byteOffset": 12704,
      "byteLength": 96,
      "target": 34962,
      "byteStride": 8
    },
    {
      "buffer": 0,
      "byteOffset": 12800,
      "byteLength": 60,
      "target": 34963
    },
    {
      "buffer": 0,
      "byteOffset": 12860,
      "byteLength": 1392,
      "target": 34962,
      "byteStride": 12
    },
    {
      "buffer": 0,
      "byteOffset": 14252,
      "byteLength": 1392,
      "target": 34962,
      "byteStride": 12
    },
    {
      "buffer": 0,
      "byteOffset": 15644,
      "byteLength": 928,
      "target": 34962,
      "byteStride": 8
    },
    {
      "buffer": 0,
      "byteOffset": 16572,
      "byteLength": 324,
      "target": 34963
    }
  ],
  "buffers": [
    {
      "byteLength": 16896,
      "uri": "data:application/octet-stream;base64,"
    }
  ],
  "accessors": [
    {
      "bufferView": 0,
      "componentType": 5126,
      "count": 238,
      "max": [
        1,
        1,
        1
      ],
      "min": [
        -1,
        -1,
        -1
      ],
      "type": "VEC3"
    },
    {
      "bufferView": 1,
      "componentType": 5126,
      "count": 238,
      "max": [
        0.05999999865889549,
        0.05976196750998497,
        0.03999999910593033
      ],
      "min": [
        -0.05999999865889549,
        0,
        -0.04099999740719795
      ],
      "type": "VEC3"
    },
    {
      "bufferView": 2,
      "componentType": 5126,
      "count": 238,
      "max": [
        23.62204933166504,
        17.1417293548584
      ],
      "min": [
        -23.62204933166504,
        -22.528339385986328
      ],
      "type": "VEC2"
    },
    {
      "bufferView": 3,
      "componentType": 5123,
      "count": 504,
      "max": [
        237
      ],
      "min": [
        0
      ],
      "type": "SCALAR"
    },
    {
      "bufferView": 4,
      "componentType": 5126,
      "count": 23,
      "max": [
        0,
        0,
        1
      ],
      "min": [
        0,
        0,
        -1
      ],
      "type": "VEC3"
    },
    {
      "bufferView": 5,
      "componentType": 5126,
      "count": 23,
      "max": [
        0.04999999701976776,
        0.05726796016097069,
        0.03799999877810478
      ],
      "min": [
        -0.04999999701976776,
        0.004999999888241291,
        -0.03799999877810478
      ],
      "type": "VEC3"
    },
    {
      "bufferView": 6,
      "componentType": 5126,
      "count": 23,
      "max": [
        19.685039520263672,
        -0.9685039520263672
      ],
      "min": [
        -19.685039520263672,
        -21.54644012451172
      ],
      "type": "VEC2"
    },
    {
      "bufferView": 7,
      "componentType": 5123,
      "count": 33,
      "max": [
        22
      ],
      "min": [
        0
      ],
      "type": "SCALAR"
    },
    {
      "bufferView": 8,
      "componentType": 5126,
      "count": 83,
      "max": [
        1,
        0.801920473575592,
        0.800000011920929
      ],
      "min": [
        -1,
        -0.801920473575592,
        -1
      ],
      "type": "VEC3"
    },
    {
      "bufferView": 9,
      "componentType": 5126,
      "count": 83,
      "max": [
        0.06499999761581421,
        0.07374999672174454,
        0.045799996703863144
      ],
      "min": [
        -0.06499999761581421,
        0.03700000047683716,
        -0.045799996703863144
      ],
      "type": "VEC3"
    },
    {
      "bufferView": 10,
      "componentType": 5126,
      "count": 83,
      "max": [
        25.59054946899414,
        6.118110179901123
      ],
      "min": [
        -25.59054946899414,
        -28.035430908203125
      ],
      "type": "VEC2"
    },
    {
      "bufferView": 11,
      "componentType": 5123,
      "count": 165,
      "max": [
        82
      ],
      "min": [
        0
      ],
      "type": "SCALAR"
    },
    {
      "bufferView": 12,
      "componentType": 5126,
      "count": 12,
      "max": [
        0,
        0,
        1
      ],
      "min": [
        0,
        0,
        -1
      ],
      "type": "VEC3"
    },
    {
      "bufferView": 13,
      "componentType": 5126,
      "count": 12,
      "max": [
        0.00699999975040555,
        0.027000000700354576,
        0.03799999877810478
      ],
      "min": [
        -0.04699999839067459,
        1.804779056415148e-17,
        -0.03799999877810478
      ],
      "type": "VEC3"
    },
    {
      "bufferView": 14,
      "componentType": 5126,
      "count": 12,
      "max": [
        2.755906105041504,
        1
      ],
      "min": [
        -18.50394058227539,
        -9.62992000579834
      ],
      "type": "VEC2"
    },
    {
      "bufferView": 15,
      "componentType": 5123,
      "count": 30,
      "max": [
        11
      ],
      "min": [
        0
      ],
      "type": "SCALAR"
    },
    {
      "bufferView": 16,
      "componentType": 5126,
      "count": 116,
      "max": [
        1,
        0,
        1
      ],
      "min": [
        -1,
        0,
        -1
      ],
      "type": "VEC3"
    },
    {
      "bufferView": 17,
      "componentType": 5126,
      "count": 116,
      "max": [
        0.05999999865889549,
        0.07000000029802322,
        0.03999999910593033
      ],
      "min": [
        -0.05999999865889549,
        0.004999999888241291,
        -0.03999999910593033
      ],
      "type": "VEC3"
    },
    {
      "bufferView": 18,
      "componentType": 5126,
      "count": 116,
      "max": [
        17.71653938293457,
        17.1417293548584
      ],
      "min": [
        -23.62204933166504,
        -14.935409545898438
      ],
      "type": "VEC2"
    },
    {
      "bufferView": 19,
      "componentType": 5123,
      "count": 162,
      "max": [
        115
      ],
      "min": [
        0
      ],
      "type": "SCALAR"
    }
  ],
  "materials": [
    {
      "pbrMetallicRoughness": {
        "baseColorFactor": [
          0.56078428030014,
          0.5686274766922,
          0.600000023841858,
          1
        ],
        "metallicFactor": 0.400000005960464,
        "roughnessFactor": 1
      },
      "name": "border"
    },
    {
      "pbrMetallicRoughness": {
        "baseColorFactor": [
          0.737254917621613,
          0.886274516582489,
          1,
          1
        ],
        "metallicFactor": 0.400000005960464,
        "roughnessFactor": 1
      },
      "name": "window"
    },
    {
      "pbrMetallicRoughness": {
        "baseColorFactor": [
          0.337254911661148,
          0.737254917621613,
          0.600000023841858,
          1
        ],
        "metallicFactor": 0.400000005960464,
        "roughnessFactor": 1
      },
      "name": "roof"
    },
    {
      "pbrMetallicRoughness": {
        "baseColorFactor": [
          0.388235300779343,
          0.400000005960464,
          0.447058796882629,
          1
        ],
        "metallicFactor": 0.400000005960464,
        "roughnessFactor": 1
      },
      "name": "door"
    },
    {
      "pbrMetallicRoughness": {
        "baseColorFactor": [
          0.952830195426941,
          0.374779790639877,
          0.292141288518906,
          1
        ],
        "metallicFactor": 0.400000005960464,
        "roughnessFactor": 1
      },
      "name": "_defaultMat"
    }
  ],
  "meshes": [
    {
      "primitives": [
        {
          "mode": 4,
          "attributes": {
            "NORMAL": 0,
            "POSITION": 1,
            "TEXCOORD_0": 2
          },
          "indices": 3,
          "material": 0
        }
      ]
    },
    {
      "primitives": [
        {
          "mode": 4,
          "attributes": {
            "NORMAL": 4,
            "POSITION": 5,
            "TEXCOORD_0": 6
          },
          "indices": 7,
          "material": 1
        }
      ]
    },
    {
      "primitives": [
        {
          "mode": 4,
          "attributes": {
            "NORMAL": 8,
            "POSITION": 9,
            "TEXCOORD_0": 10
          },
          "indices": 11,
          "material": 2
        }
      ]
    },
    {
      "primitives": [
        {
          "mode": 4,
          "attributes": {
            "NORMAL": 12,
            "POSITION": 13,
            "TEXCOORD_0": 14
          },
          "indices": 15,
          "material": 3
        }
      ]
    },
    {
      "primitives": [
        {
          "mode": 4,
          "attributes": {
            "NORMAL": 16,
            "POSITION": 17,
            "TEXCOORD_0": 18
          },
          "indices": 19,
          "material": 4
        }
      ]
    }
  ]
}