{
  "asset": {
    "version": "2.0",
    "generator": "3dpea GLTFExporter"
  },
  "scenes": [
    {
      "name": "AuxScene",
      "nodes": [
        3
      ]
    }
  ],
  "scene": 0,
  "nodes": [
    {
      "matrix": [
        46.3240203857422,
        0,
        0,
        0,
        0,
        -0.0000062240423759605,
        -46.32401880013821,
        0,
        0,
        46.32401880013821,
        -0.0000062240423759605,
        0,
        0,
        0,
        0,
        1
      ],
      "name": "Cube",
      "extras": {
        "name": "Cube"
      },
      "mesh": 0
    },
    {
      "matrix": [
        139.009506225586,
        0,
        0,
        0,
        0,
        -0.000018677158204422328,
        -139.00950146749233,
        0,
        0,
        139.00950146749233,
        -0.000018677158204422328,
        0,
        0.405314922332764,
        6.34749460220337,
        -0.702932357788086,
        1
      ],
      "name": "Icosphere003",
      "extras": {
        "name": "Icosphere.003"
      },
      "mesh": 1
    },
    {
      "name": "RootNode",
      "extras": {
        "name": "RootNode"
      },
      "children": [
        0,
        1
      ]
    },
    {
      "name": "Tree",
      "extras": {
        "additionalData": []
      },
      "children": [
        2
      ]
    }
  ],
  "bufferViews": [
    {
      "buffer": 0,
      "byteOffset": 0,
      "byteLength": 2400,
      "target": 34962,
      "byteStride": 12
    },
    {
      "buffer": 0,
      "byteOffset": 2400,
      "byteLength": 2400,
      "target": 34962,
      "byteStride": 12
    },
    {
      "buffer": 0,
      "byteOffset": 4800,
      "byteLength": 1600,
      "target": 34962,
      "byteStride": 8
    },
    {
      "buffer": 0,
      "byteOffset": 6400,
      "byteLength": 600,
      "target": 34963
    },
    {
      "buffer": 0,
      "byteOffset": 7000,
      "byteLength": 11520,
      "target": 34962,
      "byteStride": 12
    },
    {
      "buffer": 0,
      "byteOffset": 18520,
      "byteLength": 11520,
      "target": 34962,
      "byteStride": 12
    },
    {
      "buffer": 0,
      "byteOffset": 30040,
      "byteLength": 7680,
      "target": 34962,
      "byteStride": 8
    },
    {
      "buffer": 0,
      "byteOffset": 37720,
      "byteLength": 1920,
      "target": 34963
    }
  ],
  "buffers": [
    {
      "byteLength": 39640,
      "uri": "data:application/octet-stream;base64,"
    }
  ],
  "accessors": [
    {
      "bufferView": 0,
      "componentType": 5126,
      "count": 200,
      "max": [
        0.9949508905410767,
        0.9881089329719543,
        0.9958696961402893
      ],
      "min": [
        -0.9879992604255676,
        -0.9860392212867737,
        -1
      ],
      "type": "VEC3"
    },
    {
      "bufferView": 1,
      "componentType": 5126,
      "count": 200,
      "max": [
        0.023422446101903915,
        0.036082133650779724,
        0.10795028507709503
      ],
      "min": [
        -0.03977527469396591,
        -0.018356041982769966,
        -0.013439379632472992
      ],
      "type": "VEC3"
    },
    {
      "bufferView": 2,
      "componentType": 5126,
      "count": 200,
      "max": [
        0.875,
        1
      ],
      "min": [
        0.125,
        0
      ],
      "type": "VEC2"
    },
    {
      "bufferView": 3,
      "componentType": 5123,
      "count": 300,
      "max": [
        199
      ],
      "min": [
        0
      ],
      "type": "SCALAR"
    },
    {
      "bufferView": 4,
      "componentType": 5126,
      "count": 960,
      "max": [
        0.9920774698257446,
        0.9435216784477234,
        0.9435239434242249
      ],
      "min": [
        -0.9920774102210999,
        -0.9435216784477234,
        -0.9435238838195801
      ],
      "type": "VEC3"
    },
    {
      "bufferView": 5,
      "componentType": 5126,
      "count": 960,
      "max": [
        0.020974282175302505,
        0.023551251739263535,
        0.019867824390530586
      ],
      "min": [
        -0.029941663146018982,
        -0.023757124319672585,
        -0.019494958221912384
      ],
      "type": "VEC3"
    },
    {
      "bufferView": 6,
      "componentType": 5126,
      "count": 960,
      "max": [
        1,
        1
      ],
      "min": [
        0,
        0.5276179909706116
      ],
      "type": "VEC2"
    },
    {
      "bufferView": 7,
      "componentType": 5123,
      "count": 960,
      "max": [
        959
      ],
      "min": [
        0
      ],
      "type": "SCALAR"
    }
  ],
  "materials": [
    {
      "pbrMetallicRoughness": {
        "baseColorFactor": [
          0.100548520684242,
          0.0304430667310953,
          0.0165675953030586,
          1
        ],
        "metallicFactor": 0.400000005960464,
        "roughnessFactor": 1
      },
      "name": "Material"
    },
    {
      "pbrMetallicRoughness": {
        "baseColorFactor": [
          0.0251114871352911,
          0.272454857826233,
          0,
          1
        ],
        "metallicFactor": 0.400000005960464,
        "roughnessFactor": 1
      },
      "name": "Material.001"
    }
  ],
  "meshes": [
    {
      "primitives": [
        {
          "mode": 4,
          "attributes": {
            "NORMAL": 0,
            "POSITION": 1,
            "TEXCOORD_0": 2
          },
          "indices": 3,
          "material": 0
        }
      ]
    },
    {
      "primitives": [
        {
          "mode": 4,
          "attributes": {
            "NORMAL": 4,
            "POSITION": 5,
            "TEXCOORD_0": 6
          },
          "indices": 7,
          "material": 1
        }
      ]
    }
  ]
}