{
  "asset": {
    "version": "2.0",
    "generator": "3dpea GLTFExporter"
  },
  "scenes": [
    {
      "name": "AuxScene",
      "nodes": [
        4
      ]
    }
  ],
  "scene": 0,
  "nodes": [
    {
      "name": "Resource_PineTree_Group_1",
      "mesh": 0
    },
    {
      "name": "Resource_PineTree_Group_2",
      "mesh": 1
    },
    {
      "matrix": [
        100,
        0,
        0,
        0,
        0,
        -0.000013435885581891682,
        -99.99999657714513,
        0,
        0,
        99.99999657714513,
        -0.000013435885581891682,
        0,
        0,
        0,
        0,
        1
      ],
      "name": "Resource_PineTree_Group",
      "extras": {
        "name": "Resource_PineTree_Group"
      },
      "children": [
        0,
        1
      ]
    },
    {
      "name": "RootNode",
      "extras": {
        "name": "RootNode"
      },
      "children": [
        2
      ]
    },
    {
      "name": "Pine Trees",
      "extras": {
        "additionalData": []
      },
      "children": [
        3
      ]
    }
  ],
  "bufferViews": [
    {
      "buffer": 0,
      "byteOffset": 0,
      "byteLength": 3600,
      "target": 34962,
      "byteStride": 12
    },
    {
      "buffer": 0,
      "byteOffset": 3600,
      "byteLength": 3600,
      "target": 34962,
      "byteStride": 12
    },
    {
      "buffer": 0,
      "byteOffset": 7200,
      "byteLength": 2880,
      "target": 34963
    },
    {
      "buffer": 0,
      "byteOffset": 10080,
      "byteLength": 33816,
      "target": 34962,
      "byteStride": 12
    },
    {
      "buffer": 0,
      "byteOffset": 43896,
      "byteLength": 33816,
      "target": 34962,
      "byteStride": 12
    },
    {
      "buffer": 0,
      "byteOffset": 77712,
      "byteLength": 19116,
      "target": 34963
    }
  ],
  "buffers": [
    {
      "byteLength": 96828,
      "uri": "data:application/octet-stream;base64,"
    }
  ],
  "accessors": [
    {
      "bufferView": 0,
      "componentType": 5126,
      "count": 300,
      "max": [
        0.9999940395355225,
        0.996390700340271,
        0.036165785044431686
      ],
      "min": [
        -0.9999897480010986,
        -0.9964557886123657,
        -0.6647080183029175
      ],
      "type": "VEC3"
    },
    {
      "bufferView": 1,
      "componentType": 5126,
      "count": 300,
      "max": [
        0.007875903509557247,
        0.006783975288271904,
        0.0048991842195391655
      ],
      "min": [
        -0.006974818650633097,
        -0.007306498009711504,
        -0.00003848680353257805
      ],
      "type": "VEC3"
    },
    {
      "bufferView": 2,
      "componentType": 5123,
      "count": 1440,
      "max": [
        299
      ],
      "min": [
        0
      ],
      "type": "SCALAR"
    },
    {
      "bufferView": 3,
      "componentType": 5126,
      "count": 2818,
      "max": [
        0.9974350333213806,
        0.9988064169883728,
        0.9999423623085022
      ],
      "min": [
        -0.9933422803878784,
        -0.9997992515563965,
        -0.47241026163101196
      ],
      "type": "VEC3"
    },
    {
      "bufferView": 4,
      "componentType": 5126,
      "count": 2818,
      "max": [
        0.00912585761398077,
        0.008328148163855076,
        0.007843795232474804
      ],
      "min": [
        -0.008671412244439125,
        -0.008929237723350525,
        0.0006176117458380759
      ],
      "type": "VEC3"
    },
    {
      "bufferView": 5,
      "componentType": 5123,
      "count": 9558,
      "max": [
        2817
      ],
      "min": [
        0
      ],
      "type": "SCALAR"
    }
  ],
  "materials": [
    {
      "pbrMetallicRoughness": {
        "baseColorFactor": [
          0.246187329292297,
          0.144358962774277,
          0.0537984296679497,
          1
        ],
        "metallicFactor": 0.400000005960464,
        "roughnessFactor": 0.272165536880493
      },
      "name": "Wood"
    },
    {
      "pbrMetallicRoughness": {
        "baseColorFactor": [
          0.0940491408109665,
          0.178856030106544,
          0.0120082059875131,
          1
        ],
        "metallicFactor": 0.400000005960464,
        "roughnessFactor": 0.272165536880493
      },
      "name": "Green"
    }
  ],
  "meshes": [
    {
      "primitives": [
        {
          "mode": 4,
          "attributes": {
            "NORMAL": 0,
            "POSITION": 1
          },
          "indices": 2,
          "material": 0
        }
      ]
    },
    {
      "primitives": [
        {
          "mode": 4,
          "attributes": {
            "NORMAL": 3,
            "POSITION": 4
          },
          "indices": 5,
          "material": 1
        }
      ]
    }
  ]
}